<?xml version="1.0" encoding="UTF-8"?>
<svg id="Capa_2" data-name="Capa 2" xmlns="http://www.w3.org/2000/svg" viewBox="0 0 63.62 54.03">
  <defs>
    <style>
      .cls-1 {
        fill: #cb2d2d;
      }
    </style>
  </defs>
  <g id="Capa_1-2" data-name="Capa 1">
    <path class="cls-1" d="m42.86,0h0c1.33,1.19,1.78,3.07,1.15,4.73-3.88,10.14-7.76,20.27-11.64,30.41-4.1-10.07-8.19-20.13-12.29-30.2-.57-1.4-.36-2.99.55-4.2l.56-.75H0c3,.86,5.99,1.73,8.99,2.59.77.28,1.39.88,1.7,1.64,3.56,8.58,7.13,17.17,10.69,25.75.41.99-.15,2.12-1.19,2.39l-5.95,1.55,7.94,2c1.5.38,2.74,1.42,3.38,2.82,2.27,4.98,4.53,9.97,6.8,14.95v.34c2.27-4.98,4.53-9.97,6.8-14.95.64-1.41,1.88-2.45,3.38-2.82l7.94-2-5.95-1.55c-1.04-.27-1.6-1.4-1.19-2.39l10.15-24.45c.66-1.59,1.95-2.83,3.56-3.43l6.55-2.44h-20.76Z"/>
  </g>
</svg>